<svg xmlns="http://www.w3.org/2000/svg" width="150" height="100" viewBox="0 0 150 100" fill="none">
  <g clip-path="url(#clip0_378_5941)">
    <path d="M42.1377 96.8436C42.1377 96.648 42.1377 96.4525 42.0817 96.257C42.0538 96.0614 41.9978 95.8659 41.9139 95.6704C41.746 95.2793 41.5222 94.8883 41.2144 94.581C40.9066 94.2737 40.5429 94.0223 40.1232 93.8827C39.9273 93.7989 39.7314 93.743 39.5356 93.7151C39.3397 93.6871 39.1439 93.6592 38.948 93.6592C38.7521 93.6592 38.5563 93.6592 38.3604 93.7151C38.1646 93.743 37.9687 93.7989 37.7729 93.8827C37.3811 94.0503 36.9894 94.2737 36.6816 94.581C36.3739 94.8883 36.122 95.2514 35.9821 95.6704C35.8982 95.8659 35.8422 96.0614 35.8143 96.257C35.7863 96.4525 35.7583 96.648 35.7583 96.8436C35.7583 97.0391 35.7583 97.2346 35.8143 97.4302C35.8422 97.6257 35.8982 97.8212 35.9821 98.0168C36.15 98.4078 36.3739 98.7989 36.6816 99.1061C36.9894 99.4134 37.3532 99.6648 37.7729 99.8045C37.9687 99.8883 38.1646 99.9441 38.3604 99.9721C38.5563 100 38.7521 100.028 38.948 100.028C39.1439 100.028 39.3397 100.028 39.5356 99.9721C39.7314 99.9441 39.9273 99.8883 40.1232 99.8045C40.5149 99.6369 40.9066 99.4134 41.2144 99.1061C41.5222 98.7989 41.774 98.4358 41.9139 98.0168C41.9978 97.8212 42.0538 97.6257 42.0817 97.4302C42.1097 97.2346 42.1377 97.0391 42.1377 96.8436Z" fill="#F9F9F9"/>
    <path d="M142.893 84.9162C135.758 75.3352 128.623 65.7821 121.489 56.2011C119.25 58.4357 117.012 60.6704 114.773 62.905V67.5978C114.242 66.5922 113.626 65.6425 112.927 64.7486C111.192 66.4804 109.457 68.2123 107.695 69.9721C108.45 71.4246 109.01 72.9609 109.317 74.5531C109.485 75.3631 109.597 76.2011 109.625 77.0112C109.625 77.2067 109.625 77.4022 109.625 77.6257C109.625 77.7374 109.625 77.8212 109.625 77.933C109.625 78.0447 109.625 78.1285 109.625 78.2402C109.625 78.6313 109.625 79.0503 109.569 79.4413C109.513 80.2514 109.373 81.0335 109.205 81.8156C109.038 82.6257 108.786 83.4357 108.506 84.1899C107.918 85.7262 107.135 87.1508 106.128 88.4357C105.624 89.0782 105.064 89.6927 104.449 90.2514C103.861 90.7821 103.218 91.2849 102.546 91.7318C101.847 92.1788 101.091 92.5698 100.308 92.8771C99.5804 93.1843 98.797 93.4078 98.0135 93.5754C97.2301 93.743 96.4187 93.8268 95.6072 93.8268C95.5233 93.8268 95.4114 93.8268 95.3275 93.8268C95.2155 93.8268 95.1316 93.8268 95.0197 93.8268C94.8238 93.8268 94.6 93.8268 94.4041 93.7989C93.9844 93.7709 93.5647 93.6871 93.145 93.6313C92.3336 93.4637 91.5222 93.2402 90.7388 92.933C90.347 92.7933 89.9833 92.6257 89.6196 92.4302C89.2838 92.2626 88.9201 92.067 88.5843 91.8715C87.0174 93.4357 85.4226 95.0279 83.8557 96.5922C86.3739 98.1844 89.1999 99.2179 92.1657 99.6648C95.1036 100.112 98.1254 99.9721 101.007 99.2179C103.889 98.4637 106.603 97.1229 108.954 95.2793C111.304 93.4357 113.263 91.1452 114.69 88.5195V99.9162H121.824V68.6871C129.575 79.1061 137.353 89.4972 145.104 99.9162H149.944V56.229H142.809V84.9441L142.893 84.9162Z" fill="#F9F9F9"/>
    <path d="M94.3761 56.229C91.8019 56.3687 89.2557 56.9553 86.8774 57.9888C84.4992 59.0223 82.3167 60.4469 80.4421 62.2346C79.4068 61.257 78.2876 60.3631 77.1125 59.581C75.9093 58.7989 74.6503 58.1564 73.3352 57.6257C72.0201 57.095 70.6491 56.7039 69.2501 56.4525C67.8512 56.2011 66.4242 56.0894 64.9972 56.1453C83.7437 37.4302 102.49 18.7151 121.237 0H119.082C100.252 18.7709 81.4494 37.5698 62.6189 56.3408C60.2126 56.648 57.8903 57.3184 55.7079 58.3799C53.5255 59.4413 51.5389 60.8659 49.8321 62.5698C48.1254 64.2737 46.6984 66.257 45.6351 68.4358C44.5719 70.6145 43.8724 72.933 43.5926 75.3352C41.5221 77.4022 39.4796 79.4413 37.4091 81.5084C37.2971 81.3408 37.1572 81.1732 37.0173 81.0335C36.9614 80.9497 36.8774 80.8659 36.8215 80.8101C36.7375 80.7263 36.6816 80.6425 36.5977 80.5866C36.3179 80.2793 36.0101 80 35.7023 79.7486C35.0588 79.2179 34.3872 78.771 33.6598 78.352C32.2048 77.5698 30.61 77.0112 29.0151 76.648C29.4068 76.5084 29.7706 76.3408 30.1343 76.1732C30.498 76.0056 30.8338 75.838 31.1696 75.6425C31.8131 75.2793 32.4007 74.8883 32.9883 74.4413C33.6038 73.9385 34.1634 73.4078 34.667 72.7654C34.723 72.6816 34.779 72.6257 34.8349 72.5419C34.8909 72.4581 34.9468 72.4022 35.0028 72.3184C35.1147 72.1788 35.1987 72.0112 35.3106 71.8715C35.5064 71.5642 35.6743 71.257 35.8422 70.9497C36.178 70.2793 36.4018 69.5531 36.5417 68.7989C36.5977 68.4358 36.6536 68.0726 36.6536 67.6816C36.6536 67.2905 36.6536 66.8994 36.5977 66.5084C36.5137 65.7821 36.3458 65.0559 36.066 64.3575C35.7862 63.6313 35.4225 62.933 34.9748 62.2905C34.8629 62.1508 34.751 61.9832 34.6391 61.8436C34.5831 61.7598 34.5271 61.7039 34.4712 61.6201C34.4152 61.5363 34.3593 61.4804 34.3033 61.3966C34.0515 61.1173 33.7997 60.838 33.5478 60.5587C32.9883 60.0279 32.4007 59.5251 31.7571 59.1061C31.1416 58.7151 30.498 58.352 29.8265 58.0447C29.4628 57.8771 29.127 57.7374 28.7633 57.6257C28.7073 57.6257 28.6793 57.5978 28.6234 57.5698C28.5674 57.5698 28.5395 57.5419 28.4835 57.514C28.3996 57.486 28.2876 57.4581 28.2037 57.4302C28.0078 57.3743 27.812 57.3184 27.6161 57.2626C27.2804 57.1788 26.9446 57.095 26.6088 57.0112C26.2451 56.9274 25.8814 56.8436 25.5176 56.7877C25.1259 56.7318 24.7342 56.648 24.3705 56.5922C23.9508 56.5363 23.559 56.4804 23.1393 56.4525C22.4119 56.3687 21.6844 56.3408 20.9569 56.2849C20.1735 56.257 19.3621 56.229 18.5786 56.229H0V99.9162H21.1808C28.5954 92.514 36.0101 85.1117 43.4247 77.7095C43.3688 81.1173 44.1242 84.4972 45.6072 87.5698C47.0901 90.6425 49.2725 93.324 51.9866 95.3911C53.5814 93.7989 55.1763 92.2067 56.7431 90.6425C55.8478 89.8883 55.0364 88.9944 54.3369 88.0447C53.6374 87.095 53.0498 86.0615 52.5742 84.9721C51.6228 82.7933 51.1472 80.4469 51.1752 78.0726C51.1752 76.1173 51.5109 74.162 52.1544 72.3184C52.798 70.4749 53.7773 68.743 55.0364 67.2346C55.6799 66.4804 56.3794 65.8101 57.1349 65.1955C57.8903 64.581 58.7297 64.0503 59.6251 63.6313C61.3878 62.7654 63.3184 62.2905 65.305 62.2905C66.3682 62.2905 67.4035 62.4302 68.4387 62.6816C69.474 62.933 70.4533 63.324 71.3766 63.8268C71.8523 64.0782 72.2999 64.3575 72.7196 64.6648C72.9435 64.8045 73.1393 64.9721 73.3632 65.1397C73.559 65.3073 73.7829 65.4749 73.9787 65.6425C74.7342 66.3129 75.5176 67.1508 76.1332 67.9609C75.0979 69.9441 74.3705 72.095 74.0067 74.3017C73.643 76.5084 73.587 78.771 73.8948 80.9777C74.2026 83.1844 74.8181 85.3631 75.7694 87.4022C76.7208 89.4413 77.9519 91.3128 79.4908 92.9609C81.1696 91.2849 82.8484 89.6089 84.5271 87.933C84.0235 87.2067 83.5758 86.4246 83.1841 85.6425C82.7924 84.8324 82.4566 83.9665 82.1768 83.1006C81.897 82.2067 81.7012 81.2849 81.5613 80.3631C81.5053 79.9162 81.4494 79.4972 81.4214 79.0503C81.4214 78.8268 81.4214 78.6313 81.4214 78.4078C81.4214 78.2961 81.4214 78.2123 81.4214 78.1006C81.4214 77.9888 81.4214 77.905 81.4214 77.7933C81.4214 76.9274 81.5333 76.0335 81.6732 75.1676C81.8411 74.2737 82.0649 73.352 82.3727 72.486C82.9603 70.7821 83.8277 69.162 84.9189 67.7654C85.4785 67.0391 86.122 66.3687 86.7935 65.7821C87.465 65.1955 88.1645 64.6648 88.948 64.2179C89.7594 63.743 90.5988 63.352 91.4661 63.0447C92.3055 62.7654 93.1449 62.5698 94.0123 62.4581C94.432 62.4022 94.8797 62.3743 95.2994 62.3743C95.4113 62.3743 95.5232 62.3743 95.6072 62.3743C95.7191 62.3743 95.831 62.3743 95.9149 62.3743C96.1388 62.3743 96.3626 62.3743 96.5585 62.4302C97.0062 62.486 97.4818 62.5419 97.9295 62.6257C98.4052 62.7095 98.8528 62.8492 99.3285 62.9888C100.196 63.2682 101.063 63.6313 101.875 64.0782C102.266 64.3017 102.658 64.5251 103.022 64.7765C103.386 65.0279 103.721 65.2793 104.057 65.5587C105.652 63.9665 107.247 62.3743 108.814 60.8101C106.771 59.2458 104.449 58.0447 101.959 57.2626C99.4964 56.5084 96.8942 56.1732 94.2921 56.3128L94.3761 56.229ZM7.13486 63.2961H17.2356C20.873 63.2961 23.4191 63.4637 24.9301 63.8268C26.413 64.162 27.5602 64.8045 28.3716 65.7542C29.183 66.7039 29.5747 67.7933 29.5747 69.0223C29.5747 70.3352 29.155 71.3967 28.2876 72.2626C27.4203 73.1285 26.1332 73.743 24.4544 74.1061C23.1673 74.3855 21.0409 74.5251 18.075 74.5251H7.16284V63.2961H7.13486ZM31.7851 87.1229C29.7985 89.1061 27.84 91.0615 25.8534 93.0447L7.10688 93.5196V79.6927H18.8584C22.1041 79.6927 24.5663 79.9162 26.3011 80.3631C28.0358 80.8101 29.3788 81.5922 30.3302 82.6816C31.3095 83.7989 31.7851 85.0838 31.7851 86.5922C31.7851 86.7598 31.7851 86.9553 31.7851 87.1229Z" fill="#F9F9F9"/>
  </g>
  <defs>
    <clipPath id="clip0_378_5941">
      <rect width="150" height="100" fill="white"/>
    </clipPath>
  </defs>
</svg>