<svg width="47" height="47" viewBox="0 0 47 47" fill="none" xmlns="http://www.w3.org/2000/svg">
<rect width="47" height="47" fill="#1F1F1F"/>
<g clip-path="url(#clip0_378_5975)">
<path d="M37.9942 20.0102L33.3241 15.0716L33.3124 15.0365H33.3007L33.2891 15.0249L33.2774 15.0132V14.9898L33.254 14.9782H33.2424H33.2307L33.1957 14.9431H33.149L33.1373 14.9081H33.0906V14.8848H33.0672V14.8614H33.0322L15.8464 6.47868L15.4495 6.2802L14.9124 6L14.5972 6.35025L14.317 6.67716L7.90735 14.0091L6.92664 15.1416L6.76318 15.3284V21.4929H14.2936V38.4569H8.80633V40.5H26.0855V38.4569H20.5982V24.4934H23.8322V21.4929H35.052V30.366H36.6165V21.4929H36.6398L39.4886 21.5046L37.9942 20.0102ZM10.5459 19.8584H8.32765V16.4492H10.5459V19.8584ZM14.2936 19.8584H12.0987V16.4492H14.2936V19.8584ZM14.2936 14.803H9.32004L14.2936 9.09391V14.803ZM15.8464 10.0279L18.4967 14.803H15.8464V10.0279ZM19.0571 38.4569H15.8464V34.464H19.0571V38.4569ZM19.0571 32.8178H15.8464V29.4203H19.0571V32.8178ZM19.0571 27.7624H15.8464V24.4934H19.0571V27.7624ZM21.9525 22.6838H16.8738V17.5467H18.7652L21.9525 20.6756V22.6838ZM23.8205 19.0411L21.3921 16.4492H23.8205V19.0411ZM28.584 19.8584H25.3733V16.4492H28.584V19.8584ZM20.2713 14.803L16.9906 8.83706L29.2028 14.803H20.2713ZM31.9815 19.8584H30.1368V16.4492H31.9815V19.8584ZM33.5226 19.8584V17.6168L35.6474 19.8584H33.5226Z" fill="white"/>
<path d="M37.6434 31.6616H33.9541V35.351H37.6434V31.6616Z" fill="white"/>
</g>
<defs>
<clipPath id="clip0_378_5975">
<rect width="32.7254" height="34.5" fill="white" transform="translate(6.76294 6)"/>
</clipPath>
</defs>
</svg>
