<svg width="47" height="47" viewBox="0 0 47 47" fill="none" xmlns="http://www.w3.org/2000/svg">
<rect width="47" height="47" fill="#1F1F1F"/>
<g clip-path="url(#clip0_378_5990)">
<g clip-path="url(#clip1_378_5990)">
<path d="M39.9472 36.7785V14.7832H31.6378V36.7785L39.9472 36.7934V36.7785ZM38.2586 35.09H33.3412V16.4717H38.2586V35.09Z" fill="white"/>
<path d="M19.1225 36.7935V29.7135C19.1225 29.7135 19.1225 29.6987 19.1077 29.6987H10.8131V36.7787C10.8131 36.7787 10.8131 36.7935 10.8279 36.7935H19.1225ZM12.5016 31.3873H17.4191V35.0902H12.5016V31.3873Z" fill="white"/>
<path d="M21.21 36.7788L21.2248 36.7936H29.5341V22.2485H21.21V36.7788ZM22.9133 23.9371H27.8604V35.0903H22.9133V23.9371Z" fill="white"/>
<path d="M15.8796 22.5739L26.2774 12.1909V15.1829H28.6621V8.81383V7.80664H27.7289H21.2858V10.1913H24.2926L13.88 20.5891L15.8796 22.5739Z" fill="white"/>
<path d="M7.98477 39.0004V6H6V41H41V39.0004H7.98477Z" fill="white"/>
</g>
</g>
<defs>
<clipPath id="clip0_378_5990">
<rect width="35" height="35" fill="white" transform="translate(6 6)"/>
</clipPath>
<clipPath id="clip1_378_5990">
<rect width="35" height="35" fill="white" transform="translate(6 6)"/>
</clipPath>
</defs>
</svg>
