<svg xmlns="http://www.w3.org/2000/svg" width="31" height="31" viewBox="0 0 31 31" fill="none">
  <rect width="31" height="31" fill="#1F1F1F"/>
  <path d="M13.9995 18V19.5553C13.9957 19.8831 13.904 20.2044 13.7331 20.4885C13.5622 20.7725 13.3179 21.0099 13.0235 21.1776C12.3987 21.6203 11.8904 22.1964 11.539 22.8599C11.1876 23.5234 11.0029 24.2562 10.9995 25" stroke="#FFEC1E" stroke-width="1.5" stroke-linecap="round"/>
  <path d="M16.9995 18V19.5553C17.0033 19.8831 17.095 20.2044 17.2659 20.4885C17.4368 20.7725 17.6812 21.0099 17.9755 21.1776C18.6004 21.6203 19.1087 22.1964 19.46 22.8599C19.8114 23.5234 19.9961 24.2562 19.9995 25" stroke="#FFEC1E" stroke-width="1.5" stroke-linecap="round"/>
  <path d="M17.5 18H14L13.5 21L12 22.5L10.5 25H20L19.5 23L17.5 21V18Z" fill="#FFEC1E" stroke="#FFEC1E"/>
  <path d="M21 14H22.5C23.163 14 23.7989 13.7366 24.2678 13.2678C24.7366 12.7989 25 12.163 25 11.5C25 10.837 24.7366 10.2011 24.2678 9.73223C23.7989 9.26339 23.163 9 22.5 9H21" stroke="#FFEC1E" stroke-width="1.5" stroke-linecap="round"/>
  <path d="M10 9L8.5 9C7.83696 9 7.20107 9.26339 6.73223 9.73223C6.26339 10.2011 6 10.837 6 11.5C6 12.163 6.26339 12.7989 6.73223 13.2678C7.20107 13.7366 7.83696 14 8.5 14L10 14" stroke="#FFEC1E" stroke-width="1.5" stroke-linecap="round"/>
  <path d="M7.99951 25H22.9995" stroke="#FFEC1E" stroke-width="1.5" stroke-linecap="square"/>
  <path d="M11.6104 16.3778C10.579 15.3392 9.99951 13.9304 9.99951 12.4616V6.9231H20.9995V12.4616C20.9995 13.9304 20.4201 15.3392 19.3886 16.3778C18.3572 17.4165 16.9582 18 15.4995 18C14.0408 18 12.6419 17.4165 11.6104 16.3778Z" fill="#FFEC1E" stroke="#FFEC1E" stroke-width="1.5" stroke-linecap="round"/>
</svg>