<svg width="27" height="15" viewBox="0 0 27 15" fill="none" xmlns="http://www.w3.org/2000/svg">
<path d="M0.171875 11V0.394531H3.89258C6.11914 0.394531 7.15918 1.63965 7.15918 3.20703C7.15918 4.56934 6.35352 5.18457 5.43066 5.43359V5.53613C6.41211 5.59473 7.58398 6.50293 7.58398 8.1875C7.58398 9.78418 6.5293 11 4.02441 11H0.171875ZM4.00977 9.82812C5.66504 9.82812 6.30957 9.0957 6.30957 8.17285C6.30957 7.08887 5.44531 6.18066 4.08301 6.18066H1.49023V9.82812H4.00977ZM3.84863 5.03809C4.99121 5.03809 5.89941 4.33496 5.89941 3.22168C5.89941 2.29883 5.28418 1.56641 3.89258 1.56641H1.49023V5.03809H3.84863ZM10.1076 0.394531V11H8.84785V0.394531H10.1076ZM14.9164 11.1611C12.7484 11.1611 11.2836 9.53516 11.2836 7.05957C11.2836 4.58398 12.7484 2.94336 14.9164 2.94336C17.0697 2.94336 18.5199 4.58398 18.5199 7.05957C18.5199 9.53516 17.0697 11.1611 14.9164 11.1611ZM14.9164 10.0479C16.5131 10.0479 17.2602 8.6416 17.2602 7.05957C17.2602 5.47754 16.5131 4.05664 14.9164 4.05664C13.2904 4.05664 12.5434 5.47754 12.5434 7.05957C12.5434 8.6416 13.2904 10.0479 14.9164 10.0479ZM22.9479 14.1494C21.0289 14.1494 19.7252 13.3145 19.5787 11.835H20.8971C21.0729 12.6406 21.8199 13.0508 22.9479 13.0508C24.3102 13.0508 25.1451 12.4648 25.1451 11.1465V9.53516H25.0426C24.7789 9.97461 24.2662 10.8828 22.7281 10.8828C20.7945 10.8828 19.3443 9.41797 19.3443 6.91309C19.3443 4.4668 20.7506 2.94336 22.7428 2.94336C24.2809 2.94336 24.7789 3.88086 25.0719 4.30566H25.1744V3.0459H26.4049V11.2197C26.4049 13.2705 24.8814 14.1494 22.9479 14.1494ZM22.9039 9.75488C24.3541 9.75488 25.1744 8.71484 25.1744 6.95703C25.1744 5.25781 24.3834 4.07129 22.9039 4.07129C21.3805 4.07129 20.6187 5.36035 20.6187 6.95703C20.6187 8.6123 21.3951 9.75488 22.9039 9.75488Z" fill="#7F7F7F"/>
</svg>
