<svg xmlns="http://www.w3.org/2000/svg" width="20" height="20" viewBox="0 0 20 20" fill="none">
  <path d="M14.1667 1.66666H5.83335C3.53217 1.66666 1.66669 3.53214 1.66669 5.83333V14.1667C1.66669 16.4679 3.53217 18.3333 5.83335 18.3333H14.1667C16.4679 18.3333 18.3334 16.4679 18.3334 14.1667V5.83333C18.3334 3.53214 16.4679 1.66666 14.1667 1.66666Z" stroke="#7F7F7F" stroke-width="1.11111" stroke-linecap="round" stroke-linejoin="round"/>
  <path d="M13.332 9.47498C13.4349 10.1685 13.3164 10.8768 12.9935 11.4992C12.6706 12.1215 12.1597 12.6262 11.5334 12.9414C10.9071 13.2566 10.1974 13.3663 9.50519 13.2549C8.81297 13.1435 8.1735 12.8167 7.67773 12.3209C7.18196 11.8252 6.85514 11.1857 6.74375 10.4935C6.63237 9.80127 6.74209 9.09155 7.0573 8.46529C7.37252 7.83902 7.87719 7.32809 8.49952 7.00518C9.12185 6.68226 9.83016 6.5638 10.5237 6.66664C11.2311 6.77155 11.8861 7.1012 12.3918 7.6069C12.8975 8.1126 13.2271 8.76754 13.332 9.47498Z" stroke="#7F7F7F" stroke-width="1.11111" stroke-linecap="round" stroke-linejoin="round"/>
  <path d="M14.5833 5.41666H14.5916" stroke="#7F7F7F" stroke-width="1.11111" stroke-linecap="round" stroke-linejoin="round"/>
</svg>