<svg xmlns="http://www.w3.org/2000/svg" width="62" height="111" viewBox="0 0 62 111" fill="none">
  <mask id="path-1-inside-1_378_3655" fill="white">
    <path d="M62 62H35V90.5986C39.078 92.0402 42 95.9284 42 100.5C42 106.299 37.299 111 31.5 111C25.701 111 21 106.299 21 100.5C21 96.3116 23.4528 92.697 27 91.0117V62H0V0H62V62Z"/>
  </mask>
  <path d="M62 62H35V90.5986C39.078 92.0402 42 95.9284 42 100.5C42 106.299 37.299 111 31.5 111C25.701 111 21 106.299 21 100.5C21 96.3116 23.4528 92.697 27 91.0117V62H0V0H62V62Z" fill="#18283F"/>
  <path d="M62 62V63H63V62H62ZM35 62V61H34V62H35ZM35 90.5986H34V91.3058L34.6667 91.5415L35 90.5986ZM27 91.0117L27.4291 91.915L28 91.6437V91.0117H27ZM27 62H28V61H27V62ZM0 62H-1V63H0V62ZM0 0V-1H-1V0H0ZM62 0H63V-1H62V0ZM62 62V61H35V62V63H62V62ZM35 62H34V90.5986H35H36V62H35ZM35 90.5986L34.6667 91.5415C38.3578 92.8462 41 96.3655 41 100.5H42H43C43 95.4912 39.7981 91.2341 35.3333 89.6558L35 90.5986ZM42 100.5H41C41 105.747 36.7467 110 31.5 110V111V112C37.8513 112 43 106.851 43 100.5H42ZM31.5 111V110C26.2533 110 22 105.747 22 100.5H21H20C20 106.851 25.1487 112 31.5 112V111ZM21 100.5H22C22 96.7122 24.2173 93.4409 27.4291 91.915L27 91.0117L26.5709 90.1085C22.6884 91.9531 20 95.911 20 100.5H21ZM27 91.0117H28V62H27H26V91.0117H27ZM27 62V61H0V62V63H27V62ZM0 62H1V0H0H-1V62H0ZM0 0V1H62V0V-1H0V0ZM62 0H61V62H62H63V0H62Z" fill="#4E6378" mask="url(#path-1-inside-1_378_3655)"/>
</svg>