<svg xmlns="http://www.w3.org/2000/svg" width="30" height="30" viewBox="0 0 30 30" fill="none">
  <g clip-path="url(#clip0_378_3894)">
    <mask id="mask0_378_3894" style="mask-type:luminance" maskUnits="userSpaceOnUse" x="0" y="0" width="30" height="30">
      <path d="M15 0H6.72939C2.70305 0 0 2.7293 0 6.4432V23.5568C0 27.2694 2.70305 30 6.72939 30H23.2693C27.297 30 30 27.2694 30 23.5568V6.4432C30 2.7293 27.297 0 23.2693 0H15Z" fill="white"/>
    </mask>
    <g mask="url(#mask0_378_3894)">
      <path d="M30 0H0V30H30V0Z" fill="url(#paint0_linear_378_3894)"/>
    </g>
    <path d="M15.0011 8.67496C14.2672 8.67496 13.5557 8.76685 12.8757 8.93883V7.30309C12.8757 7.26633 12.8704 7.22957 12.8638 7.19281C12.7286 5.39691 11.3305 4.06705 9.62387 4.06705C7.91723 4.06705 6.5191 5.3956 6.38389 7.19281C6.37601 7.22957 6.37207 13.3328 6.37207 13.3328V17.3027C6.37207 17.3302 6.37207 17.3591 6.37207 17.3867C6.41671 22.114 10.2619 25.9317 14.9998 25.9317C19.7376 25.9317 23.6288 22.0694 23.6288 17.304C23.6288 12.5385 19.7652 8.67496 14.9998 8.67496M15.0011 24.6057C10.9669 24.6057 7.69799 21.3369 7.69799 17.3027V7.3661C7.69799 6.29224 8.5605 5.42316 9.62387 5.42316C10.6872 5.42316 11.5497 6.29355 11.5497 7.3661L11.5458 17.216C11.5458 19.1248 13.0896 20.7606 14.9998 20.7606C16.9099 20.7606 18.4577 19.2128 18.4577 17.3027C18.4577 15.3925 16.9086 13.8447 14.9998 13.8447C14.199 13.8447 13.4612 14.1178 12.8743 14.576V13.0965C13.5124 12.7735 14.2344 12.591 14.9998 12.591C17.603 12.591 19.714 14.7007 19.714 17.304C19.714 19.9072 17.603 22.0182 14.9998 22.0182C12.3965 22.0182 10.2855 19.9072 10.2855 17.304V7.30309C10.2855 6.97883 9.98882 6.67163 9.62255 6.67163C9.25628 6.67163 8.95959 6.97883 8.95959 7.30309V17.3027C8.95959 17.4549 8.96747 17.6046 8.97797 17.7529C9.20902 20.8787 11.8149 23.3415 14.9984 23.3415C18.182 23.3415 21.0373 20.6371 21.0373 17.3013C21.0373 13.9655 18.3329 11.2625 14.9984 11.2625C14.2502 11.2625 13.5347 11.399 12.873 11.6471V10.3133C13.5452 10.1085 14.258 9.99826 14.9984 9.99826C19.0314 9.99826 22.3015 13.2671 22.3015 17.3013C22.3015 21.3356 19.0314 24.6044 14.9984 24.6044M12.877 17.3027C12.877 16.129 13.8287 15.1785 15.0024 15.1785C16.176 15.1785 17.1278 16.1303 17.1278 17.3027C17.1278 18.475 16.176 19.4281 15.0024 19.4281C13.8287 19.4281 12.877 18.4763 12.877 17.3027Z" fill="white"/>
  </g>
  <defs>
    <linearGradient id="paint0_linear_378_3894" x1="15.7069" y1="-0.166489" x2="15.7069" y2="29.8179" gradientUnits="userSpaceOnUse">
      <stop stop-color="#86C340"/>
      <stop offset="1" stop-color="#1AA44A"/>
    </linearGradient>
    <clipPath id="clip0_378_3894">
      <rect width="30" height="30" fill="white"/>
    </clipPath>
  </defs>
</svg>