<svg xmlns="http://www.w3.org/2000/svg" width="30" height="30" viewBox="0 0 30 30" fill="none">
  <g clip-path="url(#clip0_378_3887)">
    <path d="M15.0049 0C8.74254 0 6.91103 0.0064629 6.55502 0.0359999C5.26988 0.142855 4.47019 0.34526 3.59896 0.779131C2.92756 1.11263 2.39803 1.4992 1.87544 2.04109C0.9237 3.02933 0.346884 4.24512 0.138073 5.69033C0.0365584 6.39192 0.0070211 6.535 0.00102299 10.1187C-0.00127874 11.3133 0.00102299 12.8854 0.00102299 14.9941C0.00102299 21.2531 0.00793949 23.0833 0.0379414 23.4387C0.141769 24.6896 0.337881 25.4765 0.75319 26.3374C1.54689 27.9852 3.06275 29.2222 4.84857 29.6838C5.46692 29.8431 6.14987 29.9308 7.02663 29.9723C7.3981 29.9885 11.1843 30 14.9728 30C18.7613 30 22.5499 29.9954 22.9121 29.9769C23.9273 29.9291 24.5168 29.85 25.1686 29.6815C26.966 29.2176 28.4541 27.9991 29.264 26.3281C29.6712 25.4881 29.8777 24.6711 29.9712 23.4855C29.9915 23.227 30 19.1058 30 14.9902C30 10.8738 29.9908 6.76026 29.9705 6.50177C29.8759 5.29706 29.6694 4.487 29.249 3.63076C28.9041 2.92986 28.5211 2.40642 27.965 1.87124C26.9727 0.923153 25.759 0.346178 24.3128 0.137548C23.6121 0.0362268 23.4725 0.00622488 19.8871 0H15.0049Z" fill="url(#paint0_radial_378_3887)"/>
    <path d="M15.0049 0C8.74254 0 6.91103 0.0064629 6.55502 0.0359999C5.26988 0.142855 4.47019 0.34526 3.59896 0.779131C2.92756 1.11263 2.39803 1.4992 1.87544 2.04109C0.9237 3.02933 0.346884 4.24512 0.138073 5.69033C0.0365584 6.39192 0.0070211 6.535 0.00102299 10.1187C-0.00127874 11.3133 0.00102299 12.8854 0.00102299 14.9941C0.00102299 21.2531 0.00793949 23.0833 0.0379414 23.4387C0.141769 24.6896 0.337881 25.4765 0.75319 26.3374C1.54689 27.9852 3.06275 29.2222 4.84857 29.6838C5.46692 29.8431 6.14987 29.9308 7.02663 29.9723C7.3981 29.9885 11.1843 30 14.9728 30C18.7613 30 22.5499 29.9954 22.9121 29.9769C23.9273 29.9291 24.5168 29.85 25.1686 29.6815C26.966 29.2176 28.4541 27.9991 29.264 26.3281C29.6712 25.4881 29.8777 24.6711 29.9712 23.4855C29.9915 23.227 30 19.1058 30 14.9902C30 10.8738 29.9908 6.76026 29.9705 6.50177C29.8759 5.29706 29.6694 4.487 29.249 3.63076C28.9041 2.92986 28.5211 2.40642 27.965 1.87124C26.9727 0.923153 25.759 0.346178 24.3128 0.137548C23.6121 0.0362268 23.4725 0.00622488 19.8871 0H15.0049Z" fill="url(#paint1_radial_378_3887)"/>
    <path d="M15.0049 0C8.74254 0 6.91103 0.0064629 6.55502 0.0359999C5.26988 0.142855 4.47019 0.34526 3.59896 0.779131C2.92756 1.11263 2.39803 1.4992 1.87544 2.04109C0.9237 3.02933 0.346884 4.24512 0.138073 5.69033C0.0365584 6.39192 0.0070211 6.535 0.00102299 10.1187C-0.00127874 11.3133 0.00102299 12.8854 0.00102299 14.9941C0.00102299 21.2531 0.00793949 23.0833 0.0379414 23.4387C0.141769 24.6896 0.337881 25.4765 0.75319 26.3374C1.54689 27.9852 3.06275 29.2222 4.84857 29.6838C5.46692 29.8431 6.14987 29.9308 7.02663 29.9723C7.3981 29.9885 11.1843 30 14.9728 30C18.7613 30 22.5499 29.9954 22.9121 29.9769C23.9273 29.9291 24.5168 29.85 25.1686 29.6815C26.966 29.2176 28.4541 27.9991 29.264 26.3281C29.6712 25.4881 29.8777 24.6711 29.9712 23.4855C29.9915 23.227 30 19.1058 30 14.9902C30 10.8738 29.9908 6.76026 29.9705 6.50177C29.8759 5.29706 29.6694 4.487 29.249 3.63076C28.9041 2.92986 28.5211 2.40642 27.965 1.87124C26.9727 0.923153 25.759 0.346178 24.3128 0.137548C23.6121 0.0362268 23.4725 0.00622488 19.8871 0H15.0049Z" fill="url(#paint2_radial_378_3887)"/>
    <path d="M15.0049 0C8.74254 0 6.91103 0.0064629 6.55502 0.0359999C5.26988 0.142855 4.47019 0.34526 3.59896 0.779131C2.92756 1.11263 2.39803 1.4992 1.87544 2.04109C0.9237 3.02933 0.346884 4.24512 0.138073 5.69033C0.0365584 6.39192 0.0070211 6.535 0.00102299 10.1187C-0.00127874 11.3133 0.00102299 12.8854 0.00102299 14.9941C0.00102299 21.2531 0.00793949 23.0833 0.0379414 23.4387C0.141769 24.6896 0.337881 25.4765 0.75319 26.3374C1.54689 27.9852 3.06275 29.2222 4.84857 29.6838C5.46692 29.8431 6.14987 29.9308 7.02663 29.9723C7.3981 29.9885 11.1843 30 14.9728 30C18.7613 30 22.5499 29.9954 22.9121 29.9769C23.9273 29.9291 24.5168 29.85 25.1686 29.6815C26.966 29.2176 28.4541 27.9991 29.264 26.3281C29.6712 25.4881 29.8777 24.6711 29.9712 23.4855C29.9915 23.227 30 19.1058 30 14.9902C30 10.8738 29.9908 6.76026 29.9705 6.50177C29.8759 5.29706 29.6694 4.487 29.249 3.63076C28.9041 2.92986 28.5211 2.40642 27.965 1.87124C26.9727 0.923153 25.759 0.346178 24.3128 0.137548C23.6121 0.0362268 23.4725 0.00622488 19.8871 0H15.0049Z" fill="url(#paint3_radial_378_3887)"/>
    <path d="M15.0057 3.85205C11.9764 3.85205 11.5963 3.86528 10.4065 3.91939C9.21902 3.97372 8.40848 4.16158 7.69925 4.43722C6.96563 4.7219 6.34332 5.10272 5.72333 5.72248C5.10289 6.34202 4.72177 6.96386 4.43595 7.6967C4.15941 8.40564 3.97118 9.2158 3.91774 10.4019C3.86453 11.5908 3.85059 11.9709 3.85059 14.998C3.85059 18.0251 3.86407 18.4038 3.91797 19.5927C3.97259 20.7793 4.16058 21.5892 4.43618 22.2979C4.72131 23.031 5.10241 23.6528 5.72263 24.2723C6.3424 24.8923 6.96471 25.2741 7.69786 25.5588C8.40754 25.8344 9.21833 26.0223 10.4055 26.0766C11.5953 26.1307 11.9753 26.1439 15.0043 26.1439C18.0339 26.1439 18.4129 26.1307 19.6027 26.0766C20.7901 26.0223 21.6016 25.8344 22.3113 25.5588C23.0447 25.2741 23.6661 24.8923 24.2858 24.2723C24.9063 23.6528 25.2874 23.031 25.5732 22.2981C25.8474 21.5892 26.0356 20.779 26.0914 19.5929C26.1449 18.404 26.1588 18.025 26.1588 14.998C26.1588 11.9709 26.1449 11.5911 26.0914 10.4021C26.0356 9.21556 25.8474 8.40564 25.5732 7.69694C25.2874 6.96386 24.9063 6.342 24.2858 5.72248C23.6654 5.10248 23.0449 4.72166 22.3106 4.43721C21.5995 4.16158 20.7885 3.97372 19.601 3.91939C18.4113 3.86528 18.0325 3.85205 15.0023 3.85205H15.0057ZM14.0051 5.86065C14.3021 5.86018 14.6335 5.86065 15.0057 5.86065C17.9839 5.86065 18.3369 5.87133 19.513 5.92473C20.6005 5.97443 21.1908 6.15601 21.5839 6.30857C22.1045 6.51059 22.4756 6.75209 22.8657 7.14219C23.2561 7.53231 23.4978 7.90384 23.7005 8.42397C23.8531 8.8164 24.0351 9.40621 24.0846 10.4929C24.138 11.6679 24.1496 12.0209 24.1496 14.9954C24.1496 17.97 24.138 18.323 24.0846 19.4979C24.0348 20.5847 23.8531 21.1745 23.7005 21.5669C23.4983 22.087 23.2561 22.4574 22.8657 22.8473C22.4754 23.2374 22.1047 23.4789 21.5839 23.6809C21.1912 23.8342 20.6005 24.0153 19.513 24.065C18.3371 24.1184 17.9839 24.13 15.0057 24.13C12.0273 24.13 11.6743 24.1184 10.4985 24.065C9.41097 24.0148 8.82073 23.8332 8.4273 23.6807C7.90677 23.4787 7.53496 23.2372 7.14457 22.8471C6.75417 22.457 6.5125 22.0864 6.30986 21.566C6.15718 21.1735 5.97523 20.5837 5.92574 19.497C5.87229 18.322 5.8616 17.9691 5.8616 14.9927C5.8616 12.0162 5.87229 11.6651 5.92574 10.4902C5.97547 9.40342 6.15718 8.81362 6.30986 8.42073C6.51202 7.90058 6.75417 7.52905 7.14457 7.13895C7.53496 6.74883 7.90677 6.50734 8.4273 6.30486C8.82049 6.1516 9.41097 5.97048 10.4985 5.92055C11.5275 5.87411 11.9262 5.86018 14.0051 5.85785L14.0051 5.86065ZM20.9598 7.71133C20.2208 7.71133 19.6213 8.30974 19.6213 9.04838C19.6213 9.7868 20.2208 10.3859 20.9598 10.3859C21.6987 10.3859 22.2983 9.7868 22.2983 9.04838C22.2983 8.30996 21.6987 7.71088 20.9598 7.71088L20.9598 7.71133ZM15.0057 9.27408C11.8423 9.27408 9.27758 11.837 9.27758 14.998C9.27758 18.159 11.8423 20.7207 15.0057 20.7207C18.1691 20.7207 20.733 18.159 20.733 14.998C20.733 11.837 18.1689 9.27408 15.0055 9.27408H15.0057ZM15.0057 11.2827C17.059 11.2827 18.7238 12.946 18.7238 14.998C18.7238 17.0498 17.059 18.7133 15.0057 18.7133C12.9522 18.7133 11.2877 17.0498 11.2877 14.998C11.2877 12.946 12.9522 11.2827 15.0057 11.2827Z" fill="white"/>
  </g>
  <defs>
    <radialGradient id="paint0_radial_378_3887" cx="0" cy="0" r="1" gradientUnits="userSpaceOnUse" gradientTransform="translate(29.0313 14.0614) rotate(164.25) scale(19.1683 13.8098)">
      <stop stop-color="#FF005F"/>
      <stop offset="1" stop-color="#FC01D8"/>
    </radialGradient>
    <radialGradient id="paint1_radial_378_3887" cx="0" cy="0" r="1" gradientUnits="userSpaceOnUse" gradientTransform="translate(7.96852 32.3106) rotate(-90) scale(23.9466 25.4068)">
      <stop stop-color="#FFCC00"/>
      <stop offset="0.1242" stop-color="#FFCC00"/>
      <stop offset="0.5672" stop-color="#FE4A05"/>
      <stop offset="0.6942" stop-color="#FF0F3F"/>
      <stop offset="1" stop-color="#FE0657" stop-opacity="0"/>
    </radialGradient>
    <radialGradient id="paint2_radial_378_3887" cx="0" cy="0" r="1" gradientUnits="userSpaceOnUse" gradientTransform="translate(15.7581 29.5769) rotate(-59.8703) scale(9.90211 12.8914)">
      <stop stop-color="#FFCC00"/>
      <stop offset="1" stop-color="#FFCC00" stop-opacity="0"/>
    </radialGradient>
    <radialGradient id="paint3_radial_378_3887" cx="0" cy="0" r="1" gradientUnits="userSpaceOnUse" gradientTransform="translate(4.07036 1.22159) rotate(164.274) scale(18.9557 6.45819)">
      <stop stop-color="#780CFF"/>
      <stop offset="1" stop-color="#820BFF" stop-opacity="0"/>
    </radialGradient>
    <clipPath id="clip0_378_3887">
      <rect width="30" height="30" fill="white"/>
    </clipPath>
  </defs>
</svg>