<svg width="50" height="52" viewBox="0 0 50 52" fill="none" xmlns="http://www.w3.org/2000/svg">
<g clip-path="url(#clip0_378_6062)">
<path d="M38.2557 22.5099V20.9488C39.0032 20.203 39.7473 19.4604 40.4948 18.7145C42.8727 21.9026 45.2507 25.0908 47.6287 28.2822V18.7145H50.0033V-0.00495148H40.4154L21.6695 18.7013C22.1425 18.6848 22.6187 18.7178 23.0851 18.8036C23.5514 18.8894 24.0078 19.0215 24.4477 19.1997C24.8876 19.3779 25.3076 19.5957 25.7045 19.8564C26.1013 20.1139 26.4751 20.4109 26.8157 20.7376C27.4408 20.1436 28.1651 19.6617 28.9589 19.3185C29.7526 18.9752 30.5993 18.7772 31.4625 18.731C32.3257 18.6848 33.1889 18.7904 34.0157 19.0446C34.8393 19.2987 35.6132 19.698 36.2978 20.2228C35.7686 20.7508 35.2394 21.2789 34.7103 21.8069C34.6011 21.7145 34.4887 21.6287 34.3696 21.5462C34.2473 21.4604 34.1183 21.3812 33.986 21.3086C33.7181 21.1601 33.4303 21.038 33.136 20.9422C32.9839 20.8927 32.8284 20.8531 32.673 20.8201C32.5241 20.7904 32.372 20.7673 32.2199 20.7508C32.1471 20.7442 32.0743 20.7409 32.0016 20.7376C31.9652 20.7376 31.9288 20.7376 31.8958 20.7376C31.8594 20.7376 31.8263 20.7376 31.7899 20.7376C31.6477 20.7376 31.5022 20.7508 31.36 20.7673C31.0689 20.8036 30.7845 20.8663 30.51 20.962C30.2156 21.0611 29.9345 21.1898 29.6666 21.3482C29.412 21.5 29.1705 21.6749 28.9489 21.8696C28.7207 22.071 28.5091 22.2954 28.3239 22.5363C27.9534 23.0116 27.6657 23.5462 27.4706 24.1139C27.3713 24.4043 27.2953 24.7013 27.2424 25.0049C27.1928 25.2954 27.163 25.5858 27.1564 25.8795C27.1564 25.9158 27.1564 25.9488 27.1564 25.9851C27.1564 26.0215 27.1564 26.0545 27.1564 26.0908C27.1564 26.1634 27.1597 26.2327 27.163 26.3053C27.1729 26.4538 27.1861 26.599 27.206 26.7475C27.249 27.0545 27.3184 27.3614 27.4077 27.6584C27.497 27.9488 27.6095 28.2327 27.7418 28.5066C27.8707 28.7739 28.0196 29.0314 28.1883 29.2756C27.6293 29.8333 27.0704 30.3911 26.5114 30.9488C26.0021 30.401 25.5854 29.7772 25.2712 29.1007C24.957 28.4241 24.7486 27.7013 24.6494 26.962C24.5502 26.2228 24.5634 25.4703 24.6858 24.7376C24.8115 24.0016 25.0463 23.2888 25.3936 22.6287C25.1885 22.3548 24.9339 22.0809 24.6792 21.8564C24.613 21.8003 24.5436 21.7409 24.4741 21.6881C24.4047 21.6353 24.3352 21.5825 24.2625 21.533C24.1169 21.434 23.9681 21.3416 23.8127 21.2591C23.5018 21.0941 23.1711 20.9653 22.8304 20.8795C22.4897 20.7937 22.1392 20.7475 21.7853 20.7508C21.1271 20.7508 20.4822 20.9059 19.8935 21.1964C19.5992 21.3416 19.3246 21.5165 19.0667 21.7178C18.8087 21.9191 18.5739 22.1502 18.3655 22.3977C17.9422 22.896 17.6181 23.4736 17.4031 24.0908C17.1848 24.7079 17.0757 25.3581 17.0757 26.0116C17.0757 26.797 17.2311 27.5858 17.5453 28.3086C17.7008 28.6683 17.8959 29.0149 18.1307 29.3317C18.3622 29.6485 18.6301 29.9422 18.9311 30.1964C18.4019 30.7244 17.8727 31.2525 17.3436 31.7805C16.4407 31.0875 15.7097 30.1931 15.2137 29.17C14.7176 28.1469 14.4695 27.0215 14.4894 25.8828C12.0188 28.3482 9.54491 30.8168 7.07435 33.2822H0V52.0049H50V33.2822H48.3893C45.803 29.8135 43.2167 26.3449 40.6304 22.8762V33.2822H38.2557V29.4868C37.7795 30.3581 37.1279 31.1238 36.3441 31.7343C35.5603 32.3449 34.6607 32.7904 33.6982 33.0413C32.7358 33.2921 31.7304 33.3449 30.7481 33.1931C29.7658 33.0413 28.8233 32.6947 27.9799 32.1667C28.5058 31.6419 29.0316 31.1172 29.5575 30.5924C29.6666 30.6617 29.7824 30.7244 29.8981 30.7838C30.0205 30.8432 30.1462 30.8993 30.2719 30.9488C30.5298 31.0479 30.7977 31.1271 31.0722 31.1799C31.2111 31.2063 31.35 31.2261 31.4923 31.2393C31.5584 31.2459 31.6279 31.2492 31.694 31.2525C31.7271 31.2525 31.7602 31.2525 31.7932 31.2525C31.8263 31.2525 31.8594 31.2525 31.8891 31.2525C32.157 31.2525 32.4249 31.2195 32.6895 31.1667C32.9508 31.1139 33.2021 31.0347 33.4502 30.9356C33.7082 30.83 33.9562 30.7013 34.191 30.5495C34.4159 30.4043 34.6309 30.2393 34.8293 30.0578C35.0344 29.8729 35.2196 29.6683 35.3916 29.4505C35.7289 29.0215 35.9935 28.5429 36.1853 28.0347C36.2846 27.7772 36.3639 27.5099 36.4235 27.2393C36.4797 26.9785 36.5194 26.7145 36.5425 26.4472C36.5525 26.3152 36.5591 26.1799 36.5624 26.0446C36.5624 26.0116 36.5624 25.9785 36.5624 25.9455C36.5624 25.9125 36.5624 25.8795 36.5624 25.8465C36.5624 25.7805 36.5591 25.7145 36.5558 25.6452C36.5392 25.368 36.5061 25.0941 36.4499 24.8234C36.3441 24.2921 36.1589 23.7739 35.9042 23.2921C36.483 22.7145 37.0651 22.1337 37.6439 21.5561C37.8721 21.8564 38.0804 22.17 38.259 22.5033L38.2557 22.5099ZM14.0296 32.4076C14.0164 32.4736 13.9966 32.5396 13.9734 32.6056C13.9205 32.7409 13.8411 32.863 13.7386 32.9653C13.6361 33.0677 13.5137 33.1469 13.3781 33.1997C13.3153 33.2261 13.2491 33.2426 13.1797 33.2558C13.1168 33.269 13.0507 33.2723 12.9878 33.2723C12.925 33.2723 12.8588 33.2657 12.796 33.2558C12.7299 33.2426 12.6637 33.2228 12.5976 33.1997C12.462 33.1469 12.3396 33.0677 12.2371 32.9653C12.1345 32.863 12.0552 32.7409 12.0022 32.6056C11.9758 32.5429 11.9593 32.4769 11.946 32.4076C11.9328 32.3449 11.9295 32.2789 11.9295 32.2162C11.9295 32.1535 11.9361 32.0875 11.946 32.0248C11.9593 31.9587 11.9791 31.8927 12.0022 31.8267C12.0552 31.6914 12.1345 31.5693 12.2371 31.467C12.3396 31.3647 12.462 31.2855 12.5976 31.2327C12.6604 31.2063 12.7266 31.1898 12.796 31.1766C12.8588 31.1634 12.925 31.1601 12.9878 31.1601C13.0507 31.1601 13.1168 31.1667 13.1797 31.1766C13.2458 31.1898 13.3119 31.2096 13.3781 31.2327C13.5137 31.2855 13.6361 31.3647 13.7386 31.467C13.8411 31.5693 13.9205 31.6914 13.9734 31.8267C13.9999 31.8894 14.0164 31.9554 14.0296 32.0248C14.0429 32.0875 14.0462 32.1535 14.0462 32.2162C14.0462 32.2789 14.0396 32.3449 14.0296 32.4076Z" fill="#18283F"/>
<path d="M10.6034 28.8582C10.6034 28.9143 10.6034 28.9737 10.5967 29.0298C9.93859 29.6899 9.27712 30.3466 8.61897 31.0034C8.46022 31.043 8.29485 31.0727 8.11956 31.0958C7.82521 31.1387 7.31919 31.1585 6.59489 31.1585H2.37476V26.5513H6.29393C7.37211 26.5513 8.19894 26.6272 8.77441 26.7757C9.34988 26.9242 9.79968 27.1816 10.1205 27.5513C10.4446 27.9209 10.6067 28.3565 10.6067 28.8549L10.6034 28.8582Z" fill="#18283F"/>
<path d="M9.67454 25.5313C9.80022 25.4817 9.92591 25.4256 10.0516 25.3695C10.1707 25.3134 10.2831 25.254 10.3989 25.1913C10.6106 25.0724 10.8123 24.9404 11.0009 24.7918C11.2092 24.6268 11.3978 24.4419 11.5598 24.2373C11.5797 24.2109 11.5995 24.1878 11.6161 24.1614C11.6359 24.135 11.6524 24.1119 11.6723 24.0854C11.7087 24.0359 11.7417 23.9831 11.7748 23.9336C11.8377 23.8346 11.8972 23.7289 11.9468 23.6233C12.056 23.3955 12.1353 23.1579 12.1783 22.9103C12.2015 22.7882 12.2114 22.666 12.218 22.5406C12.2213 22.4086 12.218 22.2765 12.2048 22.1445C12.1783 21.9002 12.1188 21.6625 12.0295 21.4315C11.9369 21.1872 11.8112 20.9561 11.6624 20.7416C11.6293 20.6921 11.5929 20.6392 11.5565 20.5897C11.5367 20.5633 11.5201 20.5402 11.5003 20.5138C11.4805 20.4874 11.4606 20.4643 11.4408 20.4412C11.3614 20.3422 11.2754 20.2497 11.1861 20.1606C11.0042 19.979 10.8024 19.8206 10.5907 19.6787C10.3857 19.5433 10.1707 19.4278 9.94906 19.3288C9.8333 19.2759 9.71423 19.2297 9.59185 19.1835C9.57531 19.1769 9.56208 19.1736 9.54554 19.167C9.52901 19.1604 9.51578 19.1571 9.49924 19.1505C9.46616 19.1406 9.4364 19.1307 9.40332 19.1175C9.33717 19.0977 9.27102 19.0779 9.20487 19.0581C9.09241 19.0251 8.97996 18.9987 8.8675 18.9723C8.74843 18.9459 8.62605 18.9194 8.50367 18.8996C8.37468 18.8765 8.24568 18.8567 8.11669 18.8402C7.98108 18.8204 7.84547 18.8072 7.70655 18.7907C7.46511 18.7676 7.22035 18.7511 6.9789 18.7379C6.71429 18.7247 6.44969 18.7214 6.18509 18.7214H0V-0.00495148H39.6937C33.4226 6.25366 27.1482 12.5156 20.8772 18.7742C20.0767 18.8732 19.2962 19.1043 18.5718 19.4575C17.8475 19.8107 17.1859 20.2827 16.6137 20.8505C16.0415 21.4216 15.5719 22.0818 15.218 22.8047C14.8641 23.5276 14.6325 24.3066 14.5333 25.1054C13.8486 25.7887 13.1607 26.4753 12.476 27.1586C12.4363 27.1058 12.3933 27.0497 12.347 27.0002C12.3239 26.9738 12.3007 26.9474 12.2776 26.921C12.2544 26.8946 12.2313 26.8681 12.2048 26.845C12.1089 26.746 12.0097 26.6503 11.9038 26.5645C11.6921 26.3862 11.4639 26.2344 11.2192 26.1023C10.7363 25.8382 10.2037 25.6567 9.67123 25.5313H9.67454Z" fill="#18283F"/>
<path d="M8.29816 21.2631C8.73472 21.3621 9.08199 21.5403 9.33996 21.7911C9.37634 21.8274 9.40942 21.8671 9.4458 21.9034C9.71369 22.2169 9.84929 22.5766 9.84929 22.9892C9.84929 23.4248 9.70708 23.7845 9.41934 24.0717C9.1316 24.3588 8.70496 24.5634 8.13941 24.6888C7.70946 24.7845 7.00169 24.8307 6.01611 24.8307H2.37476V21.0882H5.7383C6.94877 21.0882 7.80206 21.1443 8.29816 21.2598V21.2631Z" fill="#18283F"/>
</g>
<defs>
<clipPath id="clip0_378_6062">
<rect width="50.0033" height="52.0099" fill="white" transform="translate(0 -0.00495148)"/>
</clipPath>
</defs>
</svg>
